<?xml version="1.0" encoding="UTF-8" standalone="no"?>
<!-- Created with Inkscape (http://www.inkscape.org/) -->

<svg
   xmlns:dc="http://purl.org/dc/elements/1.1/"
   xmlns:cc="http://creativecommons.org/ns#"
   xmlns:rdf="http://www.w3.org/1999/02/22-rdf-syntax-ns#"
   xmlns:svg="http://www.w3.org/2000/svg"
   xmlns="http://www.w3.org/2000/svg"
   xmlns:sodipodi="http://sodipodi.sourceforge.net/DTD/sodipodi-0.dtd"
   xmlns:inkscape="http://www.inkscape.org/namespaces/inkscape"
   width="32px"
   height="32px"
   id="svg2989"
   version="1.1"
   inkscape:version="0.48.3.1 r9886"
   sodipodi:docname="be-the-network4.svg"
   inkscape:export-filename="/var/www/img/icon-network.png"
   inkscape:export-xdpi="281.25"
   inkscape:export-ydpi="281.25">
  <defs
     id="defs2991" />
  <sodipodi:namedview
     id="base"
     pagecolor="#ffffff"
     bordercolor="#666666"
     borderopacity="1.0"
     inkscape:pageopacity="0.0"
     inkscape:pageshadow="2"
     inkscape:zoom="11.313709"
     inkscape:cx="-24.123686"
     inkscape:cy="37.545034"
     inkscape:current-layer="layer1"
     showgrid="true"
     inkscape:grid-bbox="true"
     inkscape:document-units="px"
     inkscape:window-width="1680"
     inkscape:window-height="1026"
     inkscape:window-x="0"
     inkscape:window-y="24"
     inkscape:window-maximized="1" />
  <metadata
     id="metadata2994">
    <rdf:RDF>
      <cc:Work
         rdf:about="">
        <dc:format>image/svg+xml</dc:format>
        <dc:type
           rdf:resource="http://purl.org/dc/dcmitype/StillImage" />
        <dc:title></dc:title>
      </cc:Work>
    </rdf:RDF>
  </metadata>
  <g
     id="layer1"
     inkscape:label="Layer 1"
     inkscape:groupmode="layer">
    <rect
       style="opacity:0.98999999;fill:none;stroke:none"
       id="rect3885"
       width="13.766029"
       height="26.774298"
       x="8.9668636"
       y="2.6366792" />
    <rect
       style="opacity:0.98999999000000005;fill:none;stroke:none;stroke-width:0.6;stroke-miterlimit:4;stroke-dasharray:none"
       id="rect3887"
       width="9.4088917"
       height="28.668705"
       x="12.503092"
       y="0.93171209" />
    <path
       sodipodi:type="arc"
       style="opacity:0.98999999;fill:#000000;fill-opacity:1;stroke:#000000;stroke-width:0.1;stroke-linecap:round;stroke-linejoin:round;stroke-miterlimit:4;stroke-opacity:1;stroke-dasharray:none;stroke-dashoffset:0"
       id="path3926"
       sodipodi:cx="17.235525"
       sodipodi:cy="13.157017"
       sodipodi:rx="1.2502453"
       sodipodi:ry="1.2502453"
       d="m 18.48577,13.157017 a 1.2502453,1.2502453 0 1 1 -2.50049,0 1.2502453,1.2502453 0 1 1 2.50049,0 z"
       transform="matrix(1.2891184,0,0,1.2891184,-5.2286905,-3.692306)" />
    <path
       style="fill:none;stroke:#000000;stroke-width:0.6;stroke-linecap:butt;stroke-linejoin:miter;stroke-opacity:1;stroke-miterlimit:4;stroke-dasharray:none"
       d="M 16.967616,12.844455 7.5907754,2.7978405"
       id="path3930"
       inkscape:connector-curvature="0" />
    <path
       style="fill:none;stroke:#000000;stroke-width:1px;stroke-linecap:butt;stroke-linejoin:miter;stroke-opacity:1"
       d="m 17.592738,13.24632 c 0,0.05953 0,0.119071 0,0 z"
       id="path3936"
       inkscape:connector-curvature="0" />
    <path
       style="fill:none;stroke:#000000;stroke-width:0.6;stroke-linecap:butt;stroke-linejoin:miter;stroke-opacity:1;stroke-miterlimit:4;stroke-dasharray:none"
       d="M 25.36212,26.239941 17.012267,13.067713"
       id="path3938"
       inkscape:connector-curvature="0" />
    <path
       style="fill:none;stroke:#000000;stroke-width:0.40000001;stroke-linecap:butt;stroke-linejoin:miter;stroke-miterlimit:4;stroke-opacity:1;stroke-dasharray:none"
       d="M 8.5061336,21.038027 17.280177,13.067713"
       id="path3944"
       inkscape:connector-curvature="0"
       sodipodi:nodetypes="cc" />
    <path
       style="fill:none;stroke:#000000;stroke-width:0.40000001;stroke-linecap:butt;stroke-linejoin:miter;stroke-miterlimit:4;stroke-opacity:1;stroke-dasharray:none"
       d="M 16.272615,26.326071 8.3248185,21.234664"
       id="path3946"
       inkscape:connector-curvature="0"
       sodipodi:nodetypes="cc" />
    <path
       style="fill:none;stroke:#000000;stroke-width:0.40000001;stroke-linecap:butt;stroke-linejoin:miter;stroke-miterlimit:4;stroke-opacity:1;stroke-dasharray:none"
       d="M 8.0896042,21.200734 0.68509633,19.221206"
       id="path3948"
       inkscape:connector-curvature="0"
       sodipodi:nodetypes="cc" />
    <path
       style="fill:none;stroke:#000000;stroke-width:0.40000001;stroke-linecap:butt;stroke-linejoin:miter;stroke-miterlimit:4;stroke-opacity:1;stroke-dasharray:none"
       d="M 8.1865685,21.141226 6.3999596,9.8993069"
       id="path3950"
       inkscape:connector-curvature="0"
       sodipodi:nodetypes="cc" />
    <path
       sodipodi:type="arc"
       style="opacity:0.98999999;fill:#000000;fill-opacity:1;fill-rule:nonzero;stroke:#000000;stroke-width:0.2;stroke-linecap:round;stroke-linejoin:round;stroke-miterlimit:4;stroke-opacity:1;stroke-dasharray:none;stroke-dashoffset:0"
       id="path3942-9"
       sodipodi:cx="8.7517176"
       sodipodi:cy="18.381256"
       sodipodi:rx="0.53581941"
       sodipodi:ry="0.53581941"
       d="m 9.287537,18.381256 a 0.53581941,0.53581941 0 1 1 -1.0716388,0 0.53581941,0.53581941 0 1 1 1.0716388,0 z"
       transform="matrix(0.89447696,0,0,0.89447696,-1.4538458,-6.9029219)" />
    <path
       sodipodi:type="arc"
       style="opacity:0.98999999;fill:#000000;fill-opacity:1;fill-rule:nonzero;stroke:#000000;stroke-width:0.2;stroke-linecap:round;stroke-linejoin:round;stroke-miterlimit:4;stroke-opacity:1;stroke-dasharray:none;stroke-dashoffset:0"
       id="path3942-3"
       sodipodi:cx="8.7517176"
       sodipodi:cy="18.381256"
       sodipodi:rx="0.53581941"
       sodipodi:ry="0.53581941"
       d="m 9.287537,18.381256 a 0.53581941,0.53581941 0 1 1 -1.0716388,0 0.53581941,0.53581941 0 1 1 1.0716388,0 z"
       transform="matrix(1.7510759,0,0,1.7510759,-7.6725862,-29.548917)" />
    <path
       sodipodi:type="arc"
       style="opacity:0.98999999;fill:#000000;fill-opacity:1;fill-rule:nonzero;stroke:#000000;stroke-width:0.2;stroke-linecap:round;stroke-linejoin:round;stroke-miterlimit:4;stroke-opacity:1;stroke-dasharray:none;stroke-dashoffset:0"
       id="path3942-53"
       sodipodi:cx="8.7517176"
       sodipodi:cy="18.381256"
       sodipodi:rx="0.53581941"
       sodipodi:ry="0.53581941"
       d="m 9.287537,18.381256 a 0.53581941,0.53581941 0 1 1 -1.0716388,0 0.53581941,0.53581941 0 1 1 1.0716388,0 z"
       transform="matrix(1.2048389,0,0,1.2048389,14.907014,4.0488371)" />
    <path
       sodipodi:type="arc"
       style="opacity:0.98999999;fill:#000000;fill-opacity:1;fill-rule:nonzero;stroke:#000000;stroke-width:0.2;stroke-linecap:round;stroke-linejoin:round;stroke-miterlimit:4;stroke-opacity:1;stroke-dasharray:none;stroke-dashoffset:0"
       id="path3942-9-0"
       sodipodi:cx="8.7517176"
       sodipodi:cy="18.381256"
       sodipodi:rx="0.53581941"
       sodipodi:ry="0.53581941"
       d="m 9.287537,18.381256 a 0.53581941,0.53581941 0 1 1 -1.0716388,0 0.53581941,0.53581941 0 1 1 1.0716388,0 z"
       transform="matrix(0.89447696,0,0,0.89447696,-7.1967404,2.7395638)" />
    <path
       sodipodi:type="arc"
       style="opacity:0.98999999;fill:#000000;fill-opacity:1;fill-rule:nonzero;stroke:#000000;stroke-width:0.2;stroke-linecap:round;stroke-linejoin:round;stroke-miterlimit:4;stroke-opacity:1;stroke-dasharray:none;stroke-dashoffset:0"
       id="path3942-9-7"
       sodipodi:cx="8.7517176"
       sodipodi:cy="18.381256"
       sodipodi:rx="0.53581941"
       sodipodi:ry="0.53581941"
       d="m 9.287537,18.381256 a 0.53581941,0.53581941 0 1 1 -1.0716388,0 0.53581941,0.53581941 0 1 1 1.0716388,0 z"
       transform="matrix(0.89447696,0,0,0.89447696,-3.1755153,12.539056)" />
    <path
       sodipodi:type="arc"
       style="opacity:0.98999999;fill:#000000;fill-opacity:1;fill-rule:nonzero;stroke:#000000;stroke-width:0.2;stroke-linecap:round;stroke-linejoin:round;stroke-miterlimit:4;stroke-opacity:1;stroke-dasharray:none;stroke-dashoffset:0"
       id="path3942-9-78"
       sodipodi:cx="8.7517176"
       sodipodi:cy="18.381256"
       sodipodi:rx="0.53581941"
       sodipodi:ry="0.53581941"
       d="m 9.287537,18.381256 a 0.53581941,0.53581941 0 1 1 -1.0716388,0 0.53581941,0.53581941 0 1 1 1.0716388,0 z"
       transform="matrix(0.89447696,0,0,0.89447696,8.4479105,9.8751664)" />
    <path
       style="fill:none;stroke:#000000;stroke-width:0.40000001;stroke-linecap:butt;stroke-linejoin:miter;stroke-miterlimit:4;stroke-opacity:1;stroke-dasharray:none"
       d="M 28.532385,16.818449 30.340776,9.1160448"
       id="path4083"
       inkscape:connector-curvature="0"
       sodipodi:nodetypes="cc" />
    <path
       style="fill:none;stroke:#000000;stroke-width:0.40000001;stroke-linecap:butt;stroke-linejoin:miter;stroke-miterlimit:4;stroke-opacity:1;stroke-dasharray:none"
       d="M 29.81196,21.575049 28.54322,17.239354"
       id="path4144"
       inkscape:connector-curvature="0"
       sodipodi:nodetypes="cc" />
    <path
       style="fill:none;stroke:#000000;stroke-width:0.40000001;stroke-linecap:butt;stroke-linejoin:miter;stroke-miterlimit:4;stroke-opacity:1;stroke-dasharray:none"
       d="M 28.175172,16.639843 20.986261,6.1020604"
       id="path4146"
       inkscape:connector-curvature="0"
       sodipodi:nodetypes="cc" />
    <path
       style="fill:#000000;fill-opacity:1;stroke:#000000;stroke-width:1.03027987px;stroke-linecap:round;stroke-linejoin:round;stroke-opacity:1"
       d="m 13.283495,27.780264 c -0.585529,0 -2.559996,0.01899 -2.559996,0.01899 l 2.63116,-9.774397 0.585534,-7.286607 -3.876286,5.975772 -0.7326992,-0.772968 c 0,0 3.4232642,-6.2964326 3.7178482,-6.6683852 0.294584,-0.3719526 1.624489,-1.1269704 1.624489,-1.1269704 0,0 -0.394638,-0.8486693 -0.49019,-1.3026725 -0.11302,-0.5369986 -0.176845,-1.101883 -0.09045,-1.6438026 0.09028,-0.5662929 0.148872,-1.2820422 0.623951,-1.6031932 0.648537,-0.4384077 1.71721,-0.4378472 2.348313,0.025306 0.475657,0.3490744 0.482197,1.0965061 0.548992,1.6827149 0.0572,0.5019786 -0.0054,1.0211537 -0.133896,1.5097544 -0.124842,0.4745322 -0.608367,1.3404429 -0.608367,1.3404429 0,0 1.157545,0.5464819 1.618383,0.9760041 0.350381,0.3265711 3.848907,7.0958936 3.848907,7.0958936 l -0.7882,0.696979 -3.733243,-6.288844 0.481403,7.325512 3.074265,9.840918 -2.632863,-0.0068 -2.810143,-10.545646 z"
       id="path3789"
       inkscape:connector-curvature="0"
       sodipodi:nodetypes="cccccczcaaaaaacscccccccc" />
    <path
       style="fill:none;stroke:#000000;stroke-width:0.6;stroke-linecap:butt;stroke-linejoin:miter;stroke-opacity:1;stroke-miterlimit:4;stroke-dasharray:none"
       d="M 3.3467871,14.318861 16.070893,12.519173"
       id="path4188"
       inkscape:connector-curvature="0" />
    <path
       style="fill:none;stroke:#000000;stroke-width:0.40000001;stroke-linecap:butt;stroke-linejoin:miter;stroke-miterlimit:4;stroke-opacity:1;stroke-dasharray:none"
       d="M 4.6590905,28.999911 8.0526136,21.453787"
       id="path4209"
       inkscape:connector-curvature="0" />
    <path
       style="fill:none;stroke:#000000;stroke-width:0.6;stroke-linecap:butt;stroke-linejoin:miter;stroke-opacity:1;stroke-miterlimit:4;stroke-dasharray:none"
       d="M 17.056919,12.353287 26.657017,6.0574088"
       id="path4211"
       inkscape:connector-curvature="0" />
    <path
       sodipodi:type="arc"
       style="opacity:0.98999999;fill:#000000;fill-opacity:1;fill-rule:nonzero;stroke:#000000;stroke-width:0.2;stroke-linecap:round;stroke-linejoin:round;stroke-miterlimit:4;stroke-opacity:1;stroke-dasharray:none;stroke-dashoffset:0"
       id="path3942-3-4"
       sodipodi:cx="8.7517176"
       sodipodi:cy="18.381256"
       sodipodi:rx="0.53581941"
       sodipodi:ry="0.53581941"
       d="m 9.287537,18.381256 a 0.53581941,0.53581941 0 1 1 -1.0716388,0 0.53581941,0.53581941 0 1 1 1.0716388,0 z"
       transform="matrix(1.7510759,0,0,1.7510759,-12.041282,-17.962834)" />
    <path
       sodipodi:type="arc"
       style="opacity:0.98999999;fill:#000000;fill-opacity:1;fill-rule:nonzero;stroke:#000000;stroke-width:0.2;stroke-linecap:round;stroke-linejoin:round;stroke-miterlimit:4;stroke-opacity:1;stroke-dasharray:none;stroke-dashoffset:0"
       id="path3942-3-0"
       sodipodi:cx="8.7517176"
       sodipodi:cy="18.381256"
       sodipodi:rx="0.53581941"
       sodipodi:ry="0.53581941"
       d="m 9.287537,18.381256 a 0.53581941,0.53581941 0 1 1 -1.0716388,0 0.53581941,0.53581941 0 1 1 1.0716388,0 z"
       transform="matrix(1.7510759,0,0,1.7510759,-7.1158212,-10.890379)" />
    <path
       sodipodi:type="arc"
       style="opacity:0.98999999;fill:#000000;fill-opacity:1;fill-rule:nonzero;stroke:#000000;stroke-width:0.2;stroke-linecap:round;stroke-linejoin:round;stroke-miterlimit:4;stroke-opacity:1;stroke-dasharray:none;stroke-dashoffset:0"
       id="path3942-3-04"
       sodipodi:cx="8.7517176"
       sodipodi:cy="18.381256"
       sodipodi:rx="0.53581941"
       sodipodi:ry="0.53581941"
       d="m 9.287537,18.381256 a 0.53581941,0.53581941 0 1 1 -1.0716388,0 0.53581941,0.53581941 0 1 1 1.0716388,0 z"
       transform="matrix(1.7510759,0,0,1.7510759,11.644657,-26.352824)" />
    <path
       sodipodi:type="arc"
       style="opacity:0.98999999;fill:#000000;fill-opacity:1;fill-rule:nonzero;stroke:#000000;stroke-width:0.2;stroke-linecap:round;stroke-linejoin:round;stroke-miterlimit:4;stroke-opacity:1;stroke-dasharray:none;stroke-dashoffset:0"
       id="path3942-9-5"
       sodipodi:cx="8.7517176"
       sodipodi:cy="18.381256"
       sodipodi:rx="0.53581941"
       sodipodi:ry="0.53581941"
       d="m 9.287537,18.381256 a 0.53581941,0.53581941 0 1 1 -1.0716388,0 0.53581941,0.53581941 0 1 1 1.0716388,0 z"
       transform="matrix(0.89447696,0,0,0.89447696,13.207611,-10.323957)" />
    <path
       sodipodi:type="arc"
       style="opacity:0.98999999;fill:#000000;fill-opacity:1;fill-rule:nonzero;stroke:#000000;stroke-width:0.2;stroke-linecap:round;stroke-linejoin:round;stroke-miterlimit:4;stroke-opacity:1;stroke-dasharray:none;stroke-dashoffset:0"
       id="path3942-9-53"
       sodipodi:cx="8.7517176"
       sodipodi:cy="18.381256"
       sodipodi:rx="0.53581941"
       sodipodi:ry="0.53581941"
       d="m 9.287537,18.381256 a 0.53581941,0.53581941 0 1 1 -1.0716388,0 0.53581941,0.53581941 0 1 1 1.0716388,0 z"
       transform="matrix(0.89447696,0,0,0.89447696,22.539772,-7.4079388)" />
    <path
       sodipodi:type="arc"
       style="opacity:0.98999999;fill:#000000;fill-opacity:1;fill-rule:nonzero;stroke:#000000;stroke-width:0.2;stroke-linecap:round;stroke-linejoin:round;stroke-miterlimit:4;stroke-opacity:1;stroke-dasharray:none;stroke-dashoffset:0"
       id="path3942-9-51"
       sodipodi:cx="8.7517176"
       sodipodi:cy="18.381256"
       sodipodi:rx="0.53581941"
       sodipodi:ry="0.53581941"
       d="m 9.287537,18.381256 a 0.53581941,0.53581941 0 1 1 -1.0716388,0 0.53581941,0.53581941 0 1 1 1.0716388,0 z"
       transform="matrix(0.89447696,0,0,0.89447696,22.018675,5.2691586)" />
    <path
       sodipodi:type="arc"
       style="opacity:0.98999999;fill:#000000;fill-opacity:1;fill-rule:nonzero;stroke:#000000;stroke-width:0.2;stroke-linecap:round;stroke-linejoin:round;stroke-miterlimit:4;stroke-opacity:1;stroke-dasharray:none;stroke-dashoffset:0"
       id="path3942-3-04-7"
       sodipodi:cx="8.7517176"
       sodipodi:cy="18.381256"
       sodipodi:rx="0.53581941"
       sodipodi:ry="0.53581941"
       d="m 9.287537,18.381256 a 0.53581941,0.53581941 0 1 1 -1.0716388,0 0.53581941,0.53581941 0 1 1 1.0716388,0 z"
       transform="matrix(1.7510759,0,0,1.7510759,13.109729,-15.213446)" />
    <path
       style="fill:none;stroke:#000000;stroke-width:0.60000002;stroke-linecap:butt;stroke-linejoin:miter;stroke-miterlimit:4;stroke-opacity:1;stroke-dasharray:none"
       d="m 28.258249,17.034179 -6.598853,3.031052"
       id="path4330"
       inkscape:connector-curvature="0"
       sodipodi:nodetypes="cc" />
    <path
       sodipodi:type="arc"
       style="opacity:0.98999999;fill:#000000;fill-opacity:1;fill-rule:nonzero;stroke:#000000;stroke-width:0.2;stroke-linecap:round;stroke-linejoin:round;stroke-miterlimit:4;stroke-opacity:1;stroke-dasharray:none;stroke-dashoffset:0"
       id="path3942-3-08"
       sodipodi:cx="8.7517176"
       sodipodi:cy="18.381256"
       sodipodi:rx="0.53581941"
       sodipodi:ry="0.53581941"
       d="m 9.287537,18.381256 a 0.53581941,0.53581941 0 1 1 -1.0716388,0 0.53581941,0.53581941 0 1 1 1.0716388,0 z"
       transform="matrix(1.7510759,0,0,1.7510759,6.326813,-12.103249)" />
    <path
       sodipodi:type="arc"
       style="opacity:0.98999999;fill:#000000;fill-opacity:1;fill-rule:nonzero;stroke:#000000;stroke-width:0.2;stroke-linecap:round;stroke-linejoin:round;stroke-miterlimit:4;stroke-opacity:1;stroke-dasharray:none;stroke-dashoffset:0"
       id="path3942-3-09"
       sodipodi:cx="8.7517176"
       sodipodi:cy="18.381256"
       sodipodi:rx="0.53581941"
       sodipodi:ry="0.53581941"
       d="m 9.287537,18.381256 a 0.53581941,0.53581941 0 1 1 -1.0716388,0 0.53581941,0.53581941 0 1 1 1.0716388,0 z"
       transform="matrix(1.7510759,0,0,1.7510759,10.12329,-5.870198)" />
  </g>
</svg>
