<?xml version="1.0" encoding="UTF-8" standalone="no"?>
<!-- Created with Inkscape (http://www.inkscape.org/) -->

<svg
   xmlns:dc="http://purl.org/dc/elements/1.1/"
   xmlns:cc="http://creativecommons.org/ns#"
   xmlns:rdf="http://www.w3.org/1999/02/22-rdf-syntax-ns#"
   xmlns:svg="http://www.w3.org/2000/svg"
   xmlns="http://www.w3.org/2000/svg"
   xmlns:sodipodi="http://sodipodi.sourceforge.net/DTD/sodipodi-0.dtd"
   xmlns:inkscape="http://www.inkscape.org/namespaces/inkscape"
   width="32px"
   height="32px"
   id="svg2985"
   version="1.1"
   inkscape:version="0.48.3.1 r9886"
   sodipodi:docname="for_solve.svg"
   inkscape:export-filename="/media/X/bitcoin.org/bitcoin.org_icon/img/for_solve.png"
   inkscape:export-xdpi="90"
   inkscape:export-ydpi="90">
  <defs
     id="defs2987" />
  <sodipodi:namedview
     id="base"
     pagecolor="#ffffff"
     bordercolor="#666666"
     borderopacity="1.0"
     inkscape:pageopacity="0.0"
     inkscape:pageshadow="2"
     inkscape:zoom="22.395604"
     inkscape:cx="3.9763286"
     inkscape:cy="10.125975"
     inkscape:current-layer="layer1"
     showgrid="true"
     inkscape:grid-bbox="true"
     inkscape:document-units="px"
     inkscape:window-width="1680"
     inkscape:window-height="1026"
     inkscape:window-x="0"
     inkscape:window-y="24"
     inkscape:window-maximized="1" />
  <metadata
     id="metadata2990">
    <rdf:RDF>
      <cc:Work
         rdf:about="">
        <dc:format>image/svg+xml</dc:format>
        <dc:type
           rdf:resource="http://purl.org/dc/dcmitype/StillImage" />
        <dc:title></dc:title>
      </cc:Work>
    </rdf:RDF>
  </metadata>
  <g
     id="layer1"
     inkscape:label="Layer 1"
     inkscape:groupmode="layer">
    <path
       style="fill:none;stroke:#000000;stroke-width:2.86142421;stroke-linecap:round;stroke-linejoin:round;stroke-miterlimit:4;stroke-opacity:1;stroke-dasharray:none"
       d="m 18.28813,23.379614 c 0,0 -0.01237,-0.187575 0.08835,-1.605561 0.08172,-1.150601 0.289898,-1.300588 0.556584,-1.906538 0.338058,-0.768118 0.84432,-1.451593 1.305545,-2.152706 0.660912,-1.00466 1.260659,-1.681137 2.09202,-2.939179 0.982357,-1.486536 1.330868,-3.464636 1.098773,-5.2312566 C 23.195757,7.765951 22.358055,5.9150287 21.000578,4.7425821 19.589839,3.5241344 17.559999,2.9367291 15.69624,2.9713733 13.736697,3.007798 11.628452,3.7058816 10.192356,5.0395843 8.9970706,6.1496433 8.3468167,7.8631977 8.1374151,9.4809385 7.8964265,11.342707 8.0985028,13.452811 9.1229717,15.025935 c 0.8017315,1.2311 1.2360193,1.682102 1.7951213,2.562461 0.476649,0.750529 0.983506,1.493759 1.326576,2.313997 0.264684,0.632826 0.519568,0.802256 0.552357,1.982332 0.02296,0.826201 0.08144,1.494889 0.08144,1.494889 z"
       id="path2995"
       inkscape:connector-curvature="0"
       sodipodi:nodetypes="csaasaaaaasaascc" />
    <rect
       style="opacity:0.98999999;fill:#000000;fill-opacity:1;fill-rule:nonzero;stroke:#000000;stroke-width:1.37351835;stroke-linecap:round;stroke-linejoin:round;stroke-miterlimit:4;stroke-opacity:1;stroke-dasharray:none;stroke-dashoffset:0"
       id="rect3792"
       width="6.5935984"
       height="0.88173878"
       x="12.308887"
       y="26.121822" />
    <rect
       style="opacity:0.98999999;fill:#000000;fill-opacity:1;fill-rule:nonzero;stroke:#000000;stroke-width:1.37351835;stroke-linecap:round;stroke-linejoin:round;stroke-miterlimit:4;stroke-opacity:1;stroke-dasharray:none;stroke-dashoffset:0"
       id="rect3792-8"
       width="6.5935984"
       height="0.88173878"
       x="12.331267"
       y="28.969337" />
  </g>
</svg>
