<?xml version="1.0" encoding="UTF-8" standalone="no"?>
<!-- Created with Inkscape (http://www.inkscape.org/) -->

<svg
   xmlns:dc="http://purl.org/dc/elements/1.1/"
   xmlns:cc="http://creativecommons.org/ns#"
   xmlns:rdf="http://www.w3.org/1999/02/22-rdf-syntax-ns#"
   xmlns:svg="http://www.w3.org/2000/svg"
   xmlns="http://www.w3.org/2000/svg"
   version="1.1"
   width="20"
   height="20"
   id="svg2">
  <defs
     id="defs4" />
  <metadata
     id="metadata7">
    <rdf:RDF>
      <cc:Work
         rdf:about="">
        <dc:format>image/svg+xml</dc:format>
        <dc:type
           rdf:resource="http://purl.org/dc/dcmitype/StillImage" />
        <dc:title></dc:title>
      </cc:Work>
    </rdf:RDF>
  </metadata>
  <g
     transform="translate(0,-1032.3622)"
     id="layer1">
    <path
       d="m 3.5567222,1050.7476 1.2615316,0 0.035959,-16.3972 c 0,0 0.038115,-0.2427 -0.6393341,-0.2406 -0.6774446,0 -0.6393328,0.2406 -0.6393328,0.2406 0.1088678,5.3667 0.1050005,11.0282 -0.018819,16.3972 z"
       id="path2987"
       style="fill:#000000;fill-opacity:1;stroke:#000000;stroke-width:0.29926455;stroke-linecap:round;stroke-linejoin:round;stroke-miterlimit:4;stroke-opacity:1;stroke-dasharray:none" />
    <path
       d="m 7.4438113,1034.221 c -1.0943067,0 -3.2245498,0.6392 -3.2245498,0.6392 l 0,7.7271 c 0,0 2.1302436,-0.6332 3.2245498,-0.6332 1.0943073,0 2.1553649,0.3157 3.2186867,0.6332 1.063322,0.3174 2.124379,0.6389 3.218686,0.6389 1.09431,0 3.224552,-0.6389 3.224552,-0.6389 l 0,-7.7271 c 0,0 -2.130243,0.6331 -3.224552,0.6331 -2.188613,0 -4.2487586,-1.2723 -6.4373727,-1.2723 z"
       id="path3757"
       style="fill:#000000;fill-opacity:1;stroke:#000000;stroke-width:0.20912845px;stroke-linecap:round;stroke-linejoin:round;stroke-opacity:1" />
  </g>
</svg>
